Genre:Action | Horror | Sci-Fi | Thriller 
Language:English
IMDb:http://www.imdb.com/title/tt0464154/
Source:TS DVDR-Demedic
Sample:Yes

General
Complete name :Piranha 3D 2010 CAM XVID FEEL-FREE
Format : AVI
Format/Info : Audio Video Interleave
File size : 821 MiB
Duration : 1h 18mn
Overall bit rate : 1 460 Kbps
Writing library : VirtualDub build 32817/release
Video #0
Muxing mode : Packed bitstream
Codec ID : XVID
Codec ID/Hint : XviD
Duration : 1h 18mn
Bit rate : 1 329 Kbps
Width : 720 pixels
Height : 304 pixels
Display aspect ratio : 2.35:1
Frame rate : 23.976 fps
Resolution : 24 bits
Colorimetry : 4:2:0
Scan type : Progressive
Bits/(Pixel*Frame) : 0.253
Stream size : 747 MiB (91%)
Writing library : XviD 1.2.1 (UTC 2008-12-04)
Audio #1
ID : 1
Format : MPEG Audio
Format version : Version 1
Format profile : Layer 3
Codec ID : 55
Codec ID/Hint : MP3
Duration : 1h 18mn
Bit rate mode : Variable
Bit rate : 119 Kbps
Nominal bit rate : 128 Kbps
Channel(s) : 2 channels
Sampling rate : 48.0 KHz
Resolution : 16 bits
Stream size : 66.7 MiB (8%)
Alignment : Aligned on interleaves
Interleave, duration : 24 ms (0.58 video frame)
Interleave, preload duration : 566 ms
Writing library : LAME3.97 
Encoding settings : -m s -V 4 -q 2 -lowpass 17 --abr 128
Plot
After a sudden underwater tremor sets free scores of the prehistoric man-eating fish, an unlikely group of strangers must band together to stop themselves from becoming fish food for the area's new razor-toothed residents





 
http://thepiratebay.org/user/hiest







Screenshots:
 
http://www.starshare.ro/bitbucket/Piranha%203D%202010%20CAM%20XVID%20FEEL-FREE.avi_thumbs_%5B2010.08.27_17.56.18%5D.jpg
 
http://www.starshare.ro/bitbucket/vlcsnap-2010-08-27-17h57m15s166.jpg
 
http://www.starshare.ro/bitbucket/vlcsnap-2010-08-27-17h58m01s157.jpg
 
http://www.starshare.ro/bitbucket/vlcsnap-2010-08-27-17h57m22s16.jpg
 
http://www.starshare.ro/bitbucket/vlcsnap-2010-08-27-17h57m38s181.jpg
 
http://www.starshare.ro/bitbucket/vlcsnap-2010-08-27-17h57m42s221.jpg